HIERARCHY
ROOT Hips
{
	OFFSET 0.00000 0.00000 0.00000
	CHANNELS 6 Xposition Yposition Zposition Zrotation Yrotation Xrotation 
	JOINT LHipJoint
	{
		OFFSET 0 0 0
		CHANNELS 3 Zrotation Yrotation Xrotation
		JOINT LeftHip
		{
			OFFSET 1.64577 -1.42384 0.94276
			CHANNELS 3 Zrotation Yrotation Xrotation
			JOINT LeftKnee
			{
				OFFSET 2.11538 -5.81197 0.00000
				CHANNELS 3 Zrotation Yrotation Xrotation
				JOINT LeftAnkle
				{
					OFFSET 2.36541 -6.49893 0.00000
					CHANNELS 3 Zrotation Yrotation Xrotation
					JOINT LeftToe
					{
						OFFSET 0.17759 -0.48793 1.73865
						CHANNELS 3 Zrotation Yrotation Xrotation
						End Site
						{
							OFFSET 0.00000 -0.00000 0.91205
						}
					}
				}
			}
		}
	}
	JOINT RHipJoint
	{
		OFFSET 0 0 0
		CHANNELS 3 Zrotation Yrotation Xrotation
		JOINT RightHip
		{
			OFFSET -1.43750 -1.42384 0.94276
			CHANNELS 3 Zrotation Yrotation Xrotation
			JOINT RightKnee
			{
				OFFSET -2.10480 -5.78291 0.00000
				CHANNELS 3 Zrotation Yrotation Xrotation
				JOINT RightAnkle
				{
					OFFSET -2.34880 -6.45329 0.00000
					CHANNELS 3 Zrotation Yrotation Xrotation
					JOINT RightToe
					{
						OFFSET -0.22842 -0.62757 1.80469
						CHANNELS 3 Zrotation Yrotation Xrotation
						End Site
						{
							OFFSET -0.00000 -0.00000 0.95886
						}
					}
				}
			}
		}
	}
	JOINT lowerback
	{
		OFFSET 0 0 0
		CHANNELS 3 Zrotation Yrotation Xrotation
		JOINT Chest
		{
			OFFSET 0.06217 1.93758 -0.49272
			CHANNELS 3 Zrotation Yrotation Xrotation
			JOINT Chest2
			{
				OFFSET -0.03114 2.03621 -0.05830
				CHANNELS 3 Zrotation Yrotation Xrotation
				JOINT lowerneck
				{
					OFFSET 0 0 0
					CHANNELS 3 Zrotation Yrotation Xrotation
					JOINT Neck
					{
						OFFSET 0.04421 1.41010 0.26562
						CHANNELS 3 Zrotation Yrotation Xrotation
						JOINT Head
						{
							OFFSET -0.13407 1.43847 0.06181
							CHANNELS 3 Zrotation Yrotation Xrotation
							End Site
							{
								OFFSET -0.04980 1.45844 -0.00689
							}
						}
					}
				}
				JOINT LeftCollar
				{
					OFFSET 0 0 0
					CHANNELS 3 Zrotation Yrotation Xrotation
					JOINT LeftShoulder
					{
						OFFSET 2.18382 1.47753 -0.35694
CHANNELS 3 Zrotation Xrotation Yrotation
						JOINT LeftElbow
						{
OFFSET 0 -5.054600 0.000000
CHANNELS 3 Zrotation Xrotation Yrotation
							JOINT LeftWrist
							{
OFFSET 0 -3.390130 0.000000
CHANNELS 3 Zrotation Xrotation Yrotation
								JOINT lhand
								{
									OFFSET 0 0 0
CHANNELS 3 Zrotation Xrotation Yrotation
									JOINT LFingers
									{
OFFSET 0 -0.572420 -0.000000
CHANNELS 3 Zrotation Xrotation Yrotation
										End Site
										{
OFFSET 0 -0.461500 -0.000000
										}
									}
								}
								JOINT LThumb
								{
OFFSET 0 0.000000 0.000000
CHANNELS 3 Zrotation Xrotation Yrotation
									End Site
									{
OFFSET 0 -0.468550 0.468550
									}
								}
							}
						}
					}
				}
				JOINT RightCollar
				{
					OFFSET 0 0 0
					CHANNELS 3 Zrotation Yrotation Xrotation
					JOINT RightShoulder
					{
						OFFSET -2.06033 1.72839 -0.47437
CHANNELS 3 Zrotation Xrotation Yrotation
						JOINT RightElbow
						{
OFFSET 0 -5.070100 0.000000
CHANNELS 3 Zrotation Xrotation Yrotation
							JOINT RightWrist
							{
OFFSET 0 -3.149570 -0.000000
CHANNELS 3 Zrotation Xrotation Yrotation
								JOINT rhand
								{
									OFFSET 0 0 0
CHANNELS 3 Zrotation Xrotation Yrotation
									JOINT RFingers
									{
OFFSET 0 -0.718190 -0.000000
CHANNELS 3 Zrotation Xrotation Yrotation
										End Site
										{
OFFSET 0 -0.579020 -0.000000
										}
									}
								}
								JOINT RThumb
								{
OFFSET 0 0.000000 0.000000
CHANNELS 3 Zrotation Xrotation Yrotation
									End Site
									{
OFFSET 0 -0.587860 0.587860
									}
								}
							}
						}
					}
				}
			}
		}
	}
}
MOTION
Frames: 6
Frame Time: 0.008333333333333333
-25.282500 14.990700 -8.593100 1.107300 79.770400 -1.055900 0.000000 0.000000 0.000000 -23.851800 -16.490500 -0.563600 2.697500 10.188500 29.589400 2.066000 17.674900 -38.135400 0.032700 1.167900 3.210800 0.000000 0.000000 0.000000 25.725900 17.203500 -0.380500 -2.468800 -9.780900 28.270200 -2.893400 -19.502700 -43.409900 -0.267900 3.329400 -9.197300 -0.545300 1.939600 5.083500 -2.089400 2.625600 3.000900 -1.961300 1.354400 0.311400 9.432400 3.187900 -3.050900 -4.298500 4.101900 7.942300 -2.966600 2.191500 3.495300 -0.000000 -0.000000 0.000000 2.322100 -1.355100 14.119400 15.260000 -24.507000 3.333000 17.137900 8.748200 -9.911200 0.000000 0.000000 0.000000 -7.125000 0.000000 0.000000 -8.655800 40.194200 -1.034400 -0.000000 -0.000000 0.000000 -4.888700 9.523100 4.647300 -17.725700 -27.804500 -4.420500 -14.841900 -19.377200 -0.512400 0.000000 0.000000 0.000000 7.125000 0.000000 -0.000000 9.164500 29.391300 3.528100
-25.282954 14.989427 -8.593642 1.090860 79.747117 -1.066410 0.000000 0.000000 0.000000 -23.877730 -16.590774 -0.511556 2.692768 10.180312 29.562611 2.153367 17.486087 -38.407778 0.052743 1.481453 4.074560 0.000000 0.000000 0.000000 25.749096 17.359877 -0.337767 -2.464745 -9.773510 28.246370 -2.825162 -19.782692 -43.343685 -0.301697 3.531808 -9.762907 -0.527731 1.979479 5.089256 -2.111219 2.679185 2.989192 -1.996454 1.381662 0.299774 9.410508 3.126986 -2.946377 -4.240545 4.025348 7.850343 -2.945869 2.154073 3.433842 0.000000 0.000000 0.000000 2.409145 -1.355143 13.836647 15.230720 -24.466525 3.320925 17.218044 8.846705 -9.852972 0.000000 0.000000 0.000000 -7.125000 0.000000 0.000000 -8.576041 40.140921 -1.036015 0.000000 0.000000 0.000000 -4.849524 9.632458 4.551855 -17.773051 -27.865616 -4.442639 -15.003852 -19.544683 -0.439675 0.000000 0.000000 0.000000 7.125000 0.000000 0.000000 9.045296 29.466916 3.464652
-25.282831 14.989177 -8.595644 1.425756 79.731528 -0.702598 0.000000 0.000000 0.000000 -23.976295 -16.690180 -0.476068 2.684998 10.166711 29.518273 2.195042 17.488342 -38.614208 0.054967 1.512398 4.159916 0.000000 0.000000 0.000000 25.664366 17.397129 -0.379212 -2.468328 -9.780133 28.267651 -2.851115 -19.714390 -43.398807 -0.296138 3.499282 -9.671968 -0.627405 1.970365 5.076623 -2.107041 2.662581 2.979162 -1.935437 1.371868 0.291234 9.365388 3.109225 -2.926589 -4.235600 4.005265 7.835895 -2.936593 2.142784 3.421537 0.000000 0.000000 0.000000 2.438208 -1.305719 13.617935 15.228162 -24.462982 3.319828 17.226841 8.933009 -9.881982 0.000000 0.000000 0.000000 -7.125000 0.000000 0.000000 -8.573512 40.171599 -1.029209 0.000000 0.000000 0.000000 -4.906277 9.612536 4.453377 -17.747748 -27.832906 -4.430857 -14.870007 -19.429118 -0.424534 0.000000 0.000000 0.000000 7.125000 0.000000 0.000000 9.150698 29.481355 3.502924
-25.282197 14.988819 -8.598574 1.825786 79.715424 -0.289695 0.000000 0.000000 0.000000 -24.089891 -16.746853 -0.430330 2.675127 10.149527 29.462237 2.189938 17.572038 -38.659026 0.053310 1.490372 4.099204 0.000000 0.000000 0.000000 25.559698 17.391722 -0.427509 -2.474899 -9.792031 28.305928 -2.865742 -19.658898 -43.416351 -0.293993 3.486657 -9.636735 -0.708749 1.953765 5.072690 -2.122731 2.638076 2.991780 -1.904534 1.359056 0.302790 9.367314 3.106678 -2.941630 -4.254825 4.000688 7.809200 -2.943658 2.139007 3.415495 0.000000 0.000000 0.000000 2.505162 -1.272635 13.439065 15.230871 -24.466768 3.320997 17.215064 9.026723 -9.922635 0.000000 0.000000 0.000000 -7.125000 0.000000 0.000000 -8.590900 40.212445 -1.022652 0.000000 0.000000 0.000000 -4.932088 9.558396 4.342742 -17.716882 -27.793079 -4.416423 -14.779115 -19.306528 -0.526163 0.000000 0.000000 0.000000 7.125000 0.000000 0.000000 9.212112 29.376769 3.550153
-25.281125 14.989130 -8.601595 2.257306 79.698728 0.143670 0.000000 0.000000 0.000000 -24.210676 -16.777988 -0.368956 2.661714 10.126152 29.386274 2.183088 17.649212 -38.690156 0.053025 1.485618 4.086033 0.000000 0.000000 0.000000 25.446834 17.371956 -0.482830 -2.486789 -9.813742 28.375735 -2.880097 -19.588076 -43.420968 -0.291827 3.474160 -9.601667 -0.789074 1.937878 5.089678 -2.139679 2.614375 3.005670 -1.876262 1.346711 0.304246 9.354981 3.105608 -2.953260 -4.266402 3.998543 7.775285 -2.945228 2.136132 3.405688 0.000000 0.000000 0.000000 2.584652 -1.231030 13.257230 15.228904 -24.464016 3.320190 17.240503 9.131523 -9.979314 0.000000 0.000000 0.000000 -7.125000 0.000000 0.000000 -8.579194 40.272919 -1.008273 0.000000 0.000000 0.000000 -4.954610 9.522960 4.236241 -17.702064 -27.774037 -4.409497 -14.763185 -19.259875 -0.635144 0.000000 0.000000 0.000000 7.125000 0.000000 0.000000 9.214488 29.265366 3.575805
-25.279753 14.989603 -8.604860 2.799003 79.677628 0.676908 0.000000 0.000000 0.000000 -24.350268 -16.773800 -0.304202 2.646776 10.100016 29.301289 2.164001 17.740344 -38.673193 0.051825 1.468758 4.039664 0.000000 0.000000 0.000000 25.309385 17.327570 -0.535840 -2.500317 -9.838447 28.455120 -2.906001 -19.460194 -43.429661 -0.282595 3.418772 -9.446877 -0.889855 1.921311 5.122705 -2.159049 2.589341 3.034389 -1.839332 1.333733 0.311320 9.338022 3.111635 -3.014688 -4.281455 4.001641 7.755798 -2.946662 2.135231 3.410958 0.000000 0.000000 0.000000 2.679137 -1.208055 13.081553 15.218845 -24.450097 3.315984 17.307092 9.238044 -10.042405 0.000000 0.000000 0.000000 -7.125000 0.000000 0.000000 -8.532711 40.343653 -0.987797 0.000000 0.000000 0.000000 -4.976825 9.476479 4.150983 -17.698557 -27.769507 -4.407894 -14.827932 -19.248927 -0.708985 0.000000 0.000000 0.000000 7.125000 0.000000 0.000000 9.157646 29.190415 3.569775
